<svg viewBox="0 0 1280 400" xmlns="http://www.w3.org/2000/svg" xmlns:xlink="http://www.w3.org/1999/xlink"><clipPath id="a"><path d="m-5.1 20.1h1290.2v269.3h-1290.2z"/></clipPath><clipPath id="b"><path d="m557.3 237c-2-2.4-3.7-5.5-5-9.4-1.4-4-2.5-8.6-3.2-13.6-.8-5-1.3-10.2-1.7-15.3-.3-5.2-.5-10.1-.6-14.6 0-1.6-.9-3-1-4.4 0-2.7-1-5.1-1-7.1v-8.4c0-3.5 1-7.4 1.3-11.5 0-.1.5-.2.5-.3.3-4 .9-8.1 1.4-12.2.6-4.1 1.5-7.8 2.7-11.1 1.1-3.1 2.5-5.7 4.2-7.7 1.4-1.7 3.3-2.5 5.5-2.5 1.9 0 3.8.6 5.7 1.7 2 1.2 3.9 2.8 5.8 4.8 1.8 1.9 3.5 4.1 5.1 6.5 1.5 2.3 2.8 4.5 3.8 6.6l.4 18.8.3 14.4 1.1 54.9c-1.1 1.4-2.3 2.9-3.8 4.5-1.6 1.7-3.3 3.3-5.1 4.6-1.7 1.3-3.5 2.4-5.3 3.2-1.7.8-3.4 1.2-4.8 1.2-2.5.1-4.6-1-6.3-3.1m27.1-185.9c-3.3.1-6.1 0-8.4 0h-5.6c-1.5.1-2.8 0-4.1 0h-2.7v11.2h8.2c1.7 0 3 0 3.9.6 1 .8 1.7 1.5 2.3 2.7.6 1.3 1 2.7 1.2 4.3.2 1.8.4 3.6.5 5.4l.8 43.1c-7-8.5-15-12.8-23.7-12.8-4.6 0-8.7 1-12 3.1-3.3 2-6.2 4.7-8.4 8.1-2.2 3.3-4 7.1-5.2 11.3-1.3 4.1-2.2 8.5-2.9 13-.4 2.7-.6 5.5-.8 8.3-.1 1.7-.4 3.4-.5 5.2-.2 4.5-.3 8.6-.3 12.5 0 5.7.1 11.5.1 17.2v2.8c.1 6.7.5 13.2 1 19.4.6 6.2 1.6 12.1 2.9 17.5 1.3 5.5 3.3 10.3 5.8 14.4s5.8 7.5 9.6 9.9c3.9 2.4 8.7 3.6 14.3 3.6 2.3 0 4.7-.4 7.1-1.2 2.4-.7 4.8-1.8 7.1-3.1s4.5-2.7 6.6-4.4c.7-.5 1.4-2.5 2-3l.2 9h23.3c2.2 0 4.1 1.4 5.5 1.3.7 0 1.6.1 2.4.2.9.1 1.8.3 2.5.2l2.8.5v-10.2l-3 .1c-2.7.1-5.7 0-7.6-.3-1.6-.3-2.8-.8-3.7-1.6s-1.5-2-2-3.5c-.5-1.8-.8-4.3-.9-7.5l-1.2-61.4-.1-6.7-2.1-109.3h-2.2c-3.9 0-7.3-.1-10.2-.1-1 .2-1.8.2-2.5.2"/></clipPath><linearGradient id="c"><stop offset="0" stop-color="#fff"/><stop offset="1" stop-color="#eabdba"/></linearGradient><linearGradient id="d" gradientTransform="matrix(0 70.5124 70.5124 0 -28050.33 330.252)" gradientUnits="userSpaceOnUse" x1="-4.278" x2="-.54" xlink:href="#c" y1="405.934" y2="405.934"/><clipPath id="e"><path d="m396.4 60.9c-2.4 2.4-3.7 5.4-3.7 8.8s1.2 6.4 3.6 9c1.2 1.2 2.4 2.2 3.8 2.8 1.4.7 3 1.1 4.6 1.1.5 0 1.1-.1 1.6-.2 2.5-.4 4.8-1.6 6.7-3.8 2.3-2.6 3.4-5.6 3.4-8.9 0-3.4-1.2-6.4-3.5-8.8s-5.2-3.6-8.2-3.6c-2.9.1-5.9 1.3-8.3 3.6"/></clipPath><linearGradient id="f" gradientTransform="matrix(0 70.5124 70.5124 0 -28095.385 330.252)" gradientUnits="userSpaceOnUse" x1="-4.278" x2="-.54" xlink:href="#c" y1="404.184" y2="404.184"/><clipPath id="g"><path d="m473.9 241.8h.3zm-44.9-132.7 1.8.1c2.8.1 4.8.3 6.7.6 1.5.3 2.7.8 3.6 1.5.8.8 1.4 1.9 1.8 3.3.5 1.7.7 4.1.7 7l-.2 21.9-.2 23.5-.5 67.5c0 2.8-.5 4.2-.9 4.8-.6 1-1.4 1.7-2.5 2.1-2.5 1-5.3.7-8.7.6l-1.5-.2v11.2h44.9v-11.2c-1.5 0-3 .2-4.6.1-1.5-.1-2.9-.4-4-.9-1-.5-1.8-1.1-2.4-2.1-.6-.9-.8-2.3-.7-4.3l.5-57 .2-32.6.1-14c2.6-5.8 5.4-10 8.3-12.6 2.8-2.6 5.7-3.8 8.9-3.8 1.3 0 2.4.3 3.4 1s1.8 1.5 2.3 2.6c.6 1.1 1.1 2.4 1.4 3.8s.5 2.8.5 4.1v4.2l-.6 87c-.1 2.8-.7 4.2-1.1 4.9-.6.9-1.4 1.6-2.4 2-1.3.5-2.8.7-4.4.7-.9 0-1.9.9-2.9.9-.9 0-1.7.9-2.6.9v8.5h4.8l19.4.1 23.4.2-.7-10.8-2.4.1c-1.6.1-3.2.1-4.9 0-1.5-.1-2.8-.4-3.9-.9-1-.5-1.8-1.1-2.4-2.1-.6-.8-.8-2.3-.7-4.2l.4-28.8.6-42.3.2-17.8c.1-3.8-.3-7.5-1.3-10.9-.1-.2-.2-.4-.3-.7-1-3.2-2.3-6-4.1-8.4-2-2.6-4.5-4.8-7.5-6.4-.4-.2-.9-.3-1.3-.5-4.4-2-10.1-2.5-15.8-1-2.3.6-4.6 1.6-6.7 3.1-2.1 1.4-4.2 3.3-6.2 5.6l-1.2 1.5.2-11.3-17.7-.4c-2 0-3.8 0-5.7-.1-1.8-.1-3.3-.1-4.7-.2s-2.6-.2-4.4-.3l-2-.1v10.5z"/></clipPath><linearGradient id="h" gradientTransform="matrix(0 70.5124 70.5124 0 -28076.508 330.252)" gradientUnits="userSpaceOnUse" x1="-4.278" x2="-.54" xlink:href="#c" y1="404.917" y2="404.917"/><clipPath id="i"><path d="m985.8 227.9c-1.4-1.1-2.5-2.4-3.4-4s-1.6-3.5-2-5.6c-.1-.5-.1-.8-.1-1.2-.3-1.6-.5-3.2-.5-4.5 0-4.7 1.1-9.3 3.3-13.6.1-.1.2-.3.3-.4 2.3-4.4 5.1-8.7 8.2-12.7 3.5-4.4 7.1-8.6 10.7-12.6 2.1-2.3 4-4.5 5.8-6.9l-1.7 35.5-.5 9.2-.2 4.4c-1 1.9-2.1 3.6-3.3 5.2-1.3 1.7-2.7 3.3-4.2 4.6-1.4 1.3-2.8 2.2-4.3 3-1.5.7-2.8 1-3.9 1-1.7.1-3-.5-4.2-1.4m-7.2-130.9c-3.9 2.4-7.2 5.6-9.8 9.5-2.5 3.9-4.4 8.3-5.6 13s-1.8 9.6-1.8 14.6c0 2.6.2 5.5.7 8.5.5 3.2 1.3 6.2 2.5 8.9 1.2 2.9 2.9 5.4 5.1 7.3 2.3 2.1 5.2 3.2 8.6 3.2 2.5 0 4.7-.7 6.6-2 1.8-1.3 3.2-3 4.3-5.1 1-2 1.7-4.3 2.1-6.9.4-2.4.5-4.9.4-7.5l-.1-2.4-9.8.6.2 2.5c.1 1.1.1 2.3.1 3.6-.1 1.3-.3 2.4-.6 3.5-.3 1-.8 1.9-1.4 2.6-.3.3-.7.7-1.7.7-.2 0-.7 0-1.3-1.1-.7-1.3-1.3-2.9-1.7-4.7-.5-2-.8-4-1-6-.2-2.1-.3-3.9-.3-5.3 0-3.6.3-7.3.8-11 .5-3.6 1.5-6.9 2.8-9.7s3.1-5.1 5.4-6.9c2.1-1.7 4.9-2.5 8.4-2.5 3.2 0 6 .8 8.2 2.4 2.4 1.7 4.3 3.9 5.9 6.6 1.6 2.8 2.7 5.8 3.3 9.1.7 3.4.9 6.7.8 9.8 0 6.3-1.2 11.9-3.4 16.5-2.4 4.7-5.3 9.1-8.8 13.1-3.6 4.1-7.6 7.9-11.7 11.3-4.5 3.7-8.6 7.6-12.2 11.5-3.2 3.4-5.8 7.2-8.2 11.2-.4.8-1 1.5-1.4 2.2-2.6 5.1-4 10.9-4 17.4 0 2.1.2 4.1.5 6.1.2 1.4.5 2.8.8 4.2.9 3.4 2.3 6.5 4.1 9.2s4.2 5 6.9 6.7c4.6 2.9 10.4 3.7 17.5 1.3 2.7-.9 5.2-2.2 7.6-3.7 2.3-1.5 4.6-3.3 6.7-5.3.3-.3.5-.5.8-.7l-.4 11 2.2.1c5.1.3 10.2.6 15.3.7 5.1.2 9.7.4 14.9.6l1.8.1v-10.3l-7.7-.4c-1.5-.1-2.3-.4-3.3-.9-.8-.4-1.5-1.1-1.9-2.1-.4-.8-.8-2.5-.8-5.7 0-6.5.1-13 .3-19.5 0-.7.1-1.4.1-2.1.2-6.2.5-12.3.9-18.4.9-13.3 1.3-26.8 1.3-40.2 0-5.3-.5-11-1.6-17-1.1-6.1-2.9-11.8-5.5-17-2.6-5.3-6.2-9.8-10.6-13.3-4.5-3.6-10.2-5.4-17-5.4-5.6-.1-10.3 1.1-14.3 3.5"/></clipPath><linearGradient id="j" gradientTransform="matrix(0 70.5124 70.5124 0 -27936.37 330.252)" gradientUnits="userSpaceOnUse" x1="-4.278" x2="-.54" xlink:href="#c" y1="410.36" y2="410.36"/><clipPath id="k"><path d="m1130.5 83.8-7.4.6.6 10.3h2.1c1.7-.1 3.2 0 4.7.1.8 0 1.6.1 2.4.2 1.8.2 3.2.7 4.4 1.4 1 .7 1.9 1.8 2.5 3.3.7 1.6 1.1 4 1.1 6.9l.6 28 .8 33.9.9 40.3v.9c0 3.6-.5 5.5-.9 6.4-.5 1.2-1.3 2-2.2 2.5-1.1.6-2.5.7-4.2.8-2 .1-4.3-.1-6.8-.1h-2.3l.6 10.7h2.2c11.3-.3 22.7-.6 34.2-1 11.4-.4 22.8-.6 34.2-.9l2.1 1.4.5-47.7h-9.6l-.3 23.3c0 1.6-.3 2.5-1 4.1-.7 1.7-1.6 2.9-2.7 4.3-1.2 1.4-2.6 2.4-4.1 3.3-1.4.9-2.9 1.6-4.4 1.7-2.8.2-5.6.6-8.4.6h-6.7l-1.4-55-.1-4.1 12.7-.4c.6 0 .9.2 1.1.3.2.2.3.3.4.5.3.4.7.7.9 1.2.4.7 2.1 1.5 2.3 2.3.2.9 1.7 1.6 1.7 2.3v15.8h7.5v-52.4h-10.4v9.2c0 2.9-.2 5.6-.5 7.2-.4 2.4-1.4 3.2-1.8 3.4-.7.4-2.5 1.1-5.3.9-2.4-.2-5.3-.2-8.8-.2l-.3-12.7-.8-43.6c2.6 0 5.1-.1 7.6-.1 3.2-.1 6.4-.1 9.8-.1 3.6 0 6 1.1 7.2 3.4 1.4 2.7 2.2 4.5 2.2 8.2l.3 24.5h9.6l-.3-48.6z"/></clipPath><linearGradient id="l" gradientTransform="matrix(0 70.5124 70.5124 0 -27892.88 330.252)" gradientUnits="userSpaceOnUse" x1="-4.278" x2="-.54" xlink:href="#c" y1="412.049" y2="412.049"/><clipPath id="m"><path d="m869.3 253h.8zm35.7-101.7.3-44.1h.9c4.8 0 8.8 2.3 11.9 4.1 3.1 1.9 5.5 5 7.3 8 1.8 3.1 3.1 7.1 3.9 11.3.8 4.4 1.1 9.1 1.1 13.6 0 3.4-.2 7.2-.6 11.5v.7c-.4 4.3-1.3 8.4-2.7 12.1-1.3 3.6-3.2 6.7-5.7 9.2-.1.1-.2.4-.3.5-2.3 2.2-5.2 3.6-9 3.6h-7.2zm-18-51.9h-4.9c-3.2 0-6.4.2-9.7.2-.7 0-1.4.1-2.1.1h-.3v7.5h.4c2 0 4 1.3 6.2 1.2l1 .6c1.5 0 2.9.5 4.1.9.2 0 .3.3.4.4 1.1.4 2 1.1 2.8 2 .8 1 1.2 2.8 1.2 5.1l-.2 32.1-.3 36.8-.4 61c0 .8-.2 1.6-.5 2.6-.4 1.1-.9 2-1.5 2.9-.6.8-1.3.2-2.2.8-.7.5-1.4-.6-2.2-.6h-8.7v12.9l51.6-.8-.5-12.1h-11.2c-.7 0-1.3 1.3-1.9.9-.8-.6-1.4-.5-1.9-1.3-.6-.8-1-1.4-1.3-2.5-.3-1-.5-1.8-.5-2.7l.2-48.1v-10h6.4c2.3 0 4.2 1.5 6 3 .2.2.4.6.7.8 2.1 2.1 3.8 4.9 5.2 7.9 1.3 3 2.3 6.3 3 9.6 0 .1.1.3.1.4.7 3.6 1.1 6.7 1.3 9.3.5 6.6.7 13.5.7 20.4-.1 7 .5 13.9 1.6 20.7.5 3.6 1.8 7.2 3.7 10.7 1.9 3.4 4.3 6.4 7.3 9 1.6 1.4 3.2 2.6 5.1 3.7.7.4 1.5.8 2.2 1.1.9.5 1.8 1.3 2.8 1.7 1.5.6 3 1.1 4.6 1.6h8.4v-8.9l-1.4-.1c-2.6-.1-4-.6-5.8-1.5-1.7-.9-3-2.1-4-3.6-.8-1.2-1.3-2.5-1.8-3.9-.2-.7-.5-1.3-.7-2-.6-2.4-1-5-1.2-7.9-.5-6.9-.9-13.7-1.3-20.6s-.6-13.8-.8-20.8c-.3-7.7-2.5-14.8-6.5-20.9-1.1-1.7-2.3-3.1-3.6-4.5-2.1-2.4-4.3-4.5-6.9-6.3 2.5-.9 4.7-2.2 6.6-3.9 3.4-2.9 6.2-6.5 8.4-10.8.2-.3.3-.7.4-1 1.9-3.8 3.3-8 4.3-12.5.1-.4.1-.9.2-1.3.8-4.3 1.2-8.5 1.2-12.4 0-8.3-1-15.4-3.1-21.4s-5.3-11-9.4-14.8-9.2-6.6-15-8.3c-5.7-1.7-12.3-2.5-19.6-2.5-5.6-.1-11.2 0-16.7.1"/></clipPath><linearGradient id="n" gradientTransform="matrix(0 70.5124 70.5124 0 -27958.47 330.252)" gradientUnits="userSpaceOnUse" x1="-4.278" x2="-.54" xlink:href="#c" y1="409.502" y2="409.502"/><clipPath id="o"><path d="m345.7 36.4-6.3.5-45.1 3.4v10.9l2.6-.5c1-.2 1.9-.3 2.8-.4 1.7-.2 3.9-.3 6.4.7 1.4.5 2.6 1.3 3.8 2.2 1.1.9 2.1 1.9 2.8 3.1.6 1 1 2.1 1 3.2l-.1 12.9-.1 17.9-1.1 155.1c0 1.3-.2 2.5-.6 3.6-.5 1.2-1 2.2-1.8 3.1s-1.6.6-2.7 1.1c-1 .5-2-.2-3.2-.2h-9.7v15h52.3v-15h-.3c-2.7 0-5.2 1.1-7.3 1.3-1.8.1-3.3.5-4.4.1-.9-.3-1.5-.7-2-1.8-.4-.9-.9-2.7-.9-6.8l.5-75.7.1-14.4h8.8c2.2 0 3.1 1.6 4.4 3.2 1.4 1.6 1.2 4.4 1.2 6.8v31.1h11.2v-74.8h-9.6l.5 10.2c.1 2.7 0 5.3-.4 7.6-.4 2.1-1.1 4.5-2.3 6-1 1.2-2.6 2.4-5 2.4h-8.7l.7-77.8 4.3-22.7c2.1-.2 4.2-.6 6.3-.8.7-.1 1.3-.1 2-.2 3.4-.3 6.9-.6 10.2-.6 2 0 3.7.4 5 1.2 1.3.7 2.4 1.7 3.3 3 .8 1.2 1.5 2.7 1.8 4.5.4 1.9.6 3.8.6 5.9l.1 16 .2 17.7v1.5h9.6v-3.8l-.1-14.1-.2-44.1z"/></clipPath><linearGradient id="p" gradientTransform="matrix(0 70.5124 70.5124 0 -28113.863 330.252)" gradientUnits="userSpaceOnUse" x1="-4.278" x2="-.54" xlink:href="#c" y1="403.466" y2="403.466"/><clipPath id="q"><path d="m380.4 107.2h7.2c1.6 0 2.9.8 3.9 1.6 1.1.8 1.9 2.1 2.5 3.4.7 1.4 1.2 3 1.4 4.7.3 1.8.4 3.7.4 5.4v20.4l-.2 76.7h-15.2v7.5h48.6v-9.1l-13.9-.3.5-65.2v-10.6l1-43.3-36.3-.7v9.5z"/></clipPath><linearGradient id="r" gradientTransform="matrix(0 70.5124 70.5124 0 -28095.361 330.252)" gradientUnits="userSpaceOnUse" x1="-4.278" x2="-.54" xlink:href="#c" y1="404.185" y2="404.185"/><clipPath id="s"><path d="m847.3 21.7.2 19.8c-1.4-2.5-3.1-4.7-5-6.8-2.2-2.4-4.8-4.3-7.5-5.8-2.9-1.5-6-2.2-9.4-2.2-6.1 0-11.3 1.7-15.5 5.2-4.1 3.3-7.5 8-10.2 13.8-2.5 5.6-4.5 12.4-5.9 20-1.3 7.5-2.4 15.7-3 24.3-.6 8.5-1 17.7-1.1 27.2 0 3.7 0 7.4-.1 11.1v1.2c0 4.7-.1 9.5-.1 14.2v4.1c0 10.8.1 21.4.2 31.5.1 10.8.5 21.2 1.2 30.9.6 9.5 1.7 18.5 3.1 26.6 1.5 8.1 3.5 15.2 6.2 21 2.7 6 6.2 10.7 10.3 14.1 4.3 3.5 9.5 5.3 15.6 5.3 3.8 0 7.1-1.1 10-3.1 2.7-1.9 5.1-4.4 7-7.3 1.1-1.6 2-4.7 2.8-6.5l.2 15.1h9.6l-.5-59.1-.5-54.1 14.5-1-1.4-10.3-42.8 2.7v10.3l15-.6v67.9c0 2.4-.8 5.6-1 9.7-.2 4-1.1 7.9-1.9 11.8-.8 3.7-2.3 7-4 9.7-1.4 2.3-3.3 3.4-5.7 3.4-3 0-5.5-1.3-7.6-3.8-2.3-2.8-4.3-6.9-5.8-12.1-1.6-5.3-2.8-11.7-3.7-19.3-.9-7.5-1.5-15.9-2-25-.4-9.3-.7-19-.7-28.8 0-6.2-.6-12.7-.7-19 0-4.1-.6-8.1-.6-12.2v-.6c0-6.9.6-14.3.7-22.3 0-7.8.6-15.9 1-24.1.5-8 1.3-15.7 2.1-23.1.8-7.2 2.1-13.7 3.7-19.3 1.5-5.4 3.5-9.8 5.8-13 2-2.8 4.5-4.2 7.4-4.2 3 0 5.5.9 7.6 2.7 2.3 2 4.2 4.6 5.7 7.6 1.6 3.3 2.9 7 3.8 11.1 1 4.2 1.7 8.4 2.2 12.6.5 4.3.8 8.4.9 12.2.1 3.9.1 7.2.1 9.8v2.5l9.8-.6-.9-75.9-9.1.7z"/></clipPath><linearGradient id="t" gradientTransform="matrix(0 70.5124 70.5124 0 -27981.703 330.252)" gradientUnits="userSpaceOnUse" x1="-4.278" x2="-.54" xlink:href="#c" y1="408.599" y2="408.599"/><clipPath id="u"><path d="m1116.5 103.4h-29.5v11.2h3.7c1.5 0 3.1.1 5.4 0 1.3 0 2.5.2 3.6.6s2 1 2.7 1.8c.6.7.9 2 .9 3.7v1.1l-1.9 10.4-5.6 30.7-12.2 67.1-12.4-80.3-3.1-19.8-1.3-8.5c0-.6-.1-1.1-.3-1.4.1-1.9.4-2.8.6-3.3.4-.7.9-1.1 1.6-1.4.8-.4 1.9-.5 3.1-.6 1.4-.1 2.8-.1 4.3-.1h3.3v-8.6l-48.6.4v8.3h4.6c1.9 0 3.6.3 5.7.2 1.1 0 2 .3 2.9.6.7.2 1.3.7 1.8 1.5.4.6 1 1.9 1.4 4.3l1.2 7.3 1.3 9.8 18.6 115.8v1.8c0 1.2 0 2.8-.4 3.3-.3.4-.8 1.3-1.7 1.3h-8.7l.1 8 44.5-.3v-7.7h-3.7c-1.2 0-2.5-.6-4-.6l-.6-.3c-1 0-1.9-.3-2.8-.5-.8-.2-1.5-.6-2-1.2-.3-.3-.5-1.2-.6-2.2l13.6-72.7 9.3-49.8h.1l2-10.5c.6-2 1.6-3.9 3.2-5.4 1.6-1.4 3.9-2.2 5.9-2.2h9.4v-11.8z"/></clipPath><linearGradient id="v" gradientTransform="matrix(0 70.5124 70.5124 0 -27914.361 330.252)" gradientUnits="userSpaceOnUse" x1="-4.278" x2="-.54" xlink:href="#c" y1="411.215" y2="411.215"/><clipPath id="w"><path d="m688.3 228.7c-1.4-1.1-2.5-2.4-3.4-4s-1.6-3.5-2-5.6c-.1-.5-.1-.8-.1-1.2-.3-1.6-.5-3.2-.5-4.5 0-4.7 1.1-9.3 3.3-13.6.1-.1.2-.3.3-.5 2.3-4.4 5.1-8.7 8.2-12.6 3.5-4.4 7.1-8.6 10.7-12.6 2.1-2.3 4-4.5 5.8-6.9l-1.7 35.5-.5 9.2-.2 4.4c-1 1.9-2.1 3.6-3.3 5.2-1.3 1.7-2.7 3.3-4.2 4.6-1.4 1.3-2.8 2.2-4.3 3-1.5.7-2.7 1-3.9 1-1.7.1-3-.5-4.2-1.4m-7.2-130.9c-3.9 2.4-7.2 5.6-9.7 9.5s-4.4 8.3-5.6 13-1.8 9.6-1.8 14.6c0 2.6.2 5.5.7 8.5.5 3.2 1.3 6.2 2.5 8.9 1.2 2.9 2.9 5.4 5.1 7.3 2.3 2.1 5.2 3.2 8.6 3.2 2.5 0 4.7-.7 6.6-2 1.8-1.3 3.2-3 4.3-5.1 1-2 1.7-4.3 2.1-6.9.4-2.4.5-4.9.4-7.5l-.1-2.4-9.8.6.2 2.5c.1 1.1.1 2.3.1 3.6-.1 1.3-.3 2.4-.6 3.5-.4 1-.8 1.9-1.4 2.6-.3.3-.8.7-1.7.7-.2 0-.7 0-1.3-1.1-.7-1.3-1.3-2.9-1.8-4.7-.5-2-.8-4-1-6-.2-2.1-.3-3.9-.3-5.3 0-3.6.3-7.3.8-11 .5-3.6 1.5-6.9 2.8-9.7s3.1-5.1 5.4-6.9c2.1-1.7 4.9-2.5 8.4-2.5 3.2 0 6 .8 8.2 2.5 2.4 1.7 4.3 3.9 5.9 6.6 1.6 2.8 2.7 5.8 3.3 9.1.7 3.4.9 6.7.8 9.8 0 6.3-1.2 11.9-3.4 16.5-2.3 4.7-5.3 9.1-8.8 13.1-3.6 4.1-7.5 7.9-11.7 11.3-4.5 3.7-8.6 7.6-12.2 11.5-3.2 3.4-5.8 7.2-8.2 11.2-.4.8-1 1.5-1.4 2.2-2.6 5.1-4 10.9-4 17.4 0 2.1.2 4.1.5 6.1.2 1.4.5 2.8.8 4.2.9 3.4 2.3 6.5 4.1 9.2s4.2 5 6.9 6.7c4.6 2.9 10.4 3.7 17.5 1.3 2.7-.9 5.2-2.2 7.6-3.7 2.3-1.5 4.6-3.3 6.7-5.3.3-.3.5-.5.8-.7l-.4 11 2.2.1c5.1.3 10.2.6 15.3.7 5.1.2 9.7.4 14.9.6l1.8.1v-10.3l-7.7-.4c-1.5-.1-2.3-.4-3.3-.9-.8-.4-1.5-1.1-1.9-2.1-.4-.8-.8-2.5-.8-5.7 0-6.5.1-13 .3-19.5 0-.7.1-1.4.1-2.1.2-6.2.5-12.3.9-18.4.9-13.3 1.3-26.8 1.3-40.2 0-5.3-.5-11-1.6-17-1.1-6.1-2.9-11.8-5.5-17-2.6-5.3-6.2-9.8-10.6-13.3-4.5-3.6-10.3-5.4-17-5.4-5.6-.2-10.3 1-14.3 3.4"/></clipPath><linearGradient id="x" gradientTransform="matrix(0 70.5124 70.5124 0 -28015.941 330.47)" gradientUnits="userSpaceOnUse" x1="-4.27" x2="-.531" xlink:href="#c" y1="407.269" y2="407.269"/><clipPath id="y"><path d="m-5.1 20.1h1290.2v269.3h-1290.2z"/></clipPath><clipPath id="z"><path d="m.6 29h242.7v243.6h-242.7z"/></clipPath><clipPath id="A"><path d="m63.7 264.1s5.4-73 9.7-80.6l-3.8-.6c-.1 0-10 59.5-5.9 81.2"/></clipPath><linearGradient id="B" gradientTransform="matrix(2.4914 -21.628 21.0454 2.4236 -8400.264 -576.233)" gradientUnits="userSpaceOnUse" x1="6.13" x2="9.868" y1="401.361" y2="401.361"><stop offset="0" stop-color="#9cbe30"/><stop offset=".696" stop-color="#9cbe30"/><stop offset=".762" stop-color="#8dae23"/><stop offset=".909" stop-color="#6f8e0a"/><stop offset=".991" stop-color="#648200"/><stop offset="1" stop-color="#648200"/></linearGradient><clipPath id="C"><path d="m.6 29h242.7v243.6h-242.7z"/></clipPath><g clip-path="url(#a)"><path clip-path="url(#b)" d="m526.4 51.1h93.2v201h-93.2z" fill="url(#d)"/></g><g clip-path="url(#a)"><path clip-path="url(#e)" d="m392.7 57.4h23.7v25.2h-23.7z" fill="url(#f)"/></g><g clip-path="url(#a)"><path clip-path="url(#g)" d="m429 98.8h92.4v154.2h-92.4z" fill="url(#h)"/></g><g clip-path="url(#a)"><path clip-path="url(#i)" d="m959.8 93.4h78.6v152.3h-78.6z" fill="url(#j)"/></g><g clip-path="url(#a)"><path clip-path="url(#k)" d="m1123.1 81.1h77.1v149h-77.1z" fill="url(#l)"/></g><g clip-path="url(#a)"><path clip-path="url(#m)" d="m869.3 99.2h94.3v190.1h-94.3z" fill="url(#n)"/></g><g clip-path="url(#a)"><path clip-path="url(#o)" d="m294.4 34.1h82.2v233.9h-82.2z" fill="url(#p)"/></g><g clip-path="url(#a)"><path clip-path="url(#q)" d="m380.4 97.6h48.6v129.2h-48.6z" fill="url(#r)"/></g><g clip-path="url(#a)"><path clip-path="url(#s)" d="m789.7 21.1h79.8v256.1h-79.8z" fill="url(#t)"/></g><g clip-path="url(#a)"><path clip-path="url(#u)" d="m1030.9 103.4h100.9v165.1h-100.9z" fill="url(#v)"/></g><g clip-path="url(#a)"><path clip-path="url(#w)" d="m662.3 94.2h78.6v152.3h-78.6z" fill="url(#x)"/></g><g clip-path="url(#a)"><path clip-path="url(#y)" d="m1224.5 78.7v3.3h-6.4v16.7h-4v-16.7h-6.4v-3.3zm21.6 20-.7-11.7c-.1-1.5-.1-3.4-.1-5.6h-.2c-.5 1.8-1.1 4.1-1.7 5.9l-3.6 11.1h-4.1l-3.7-11.4c-.4-1.5-1-3.9-1.4-5.7h-.2c0 1.8-.1 3.7-.1 5.6l-.7 11.7h-3.8l1.5-20h5.9l3.5 9.8c.4 1.5.8 3 1.3 5.1h.1c.5-1.8 1-3.5 1.4-5l3.5-9.8h5.7l1.5 20z" fill="#fff"/></g><g clip-path="url(#a)"><path clip-path="url(#z)" d="m230 266.1c0 3.1-47.1 5.5-105.3 5.5s-105.3-2.5-105.3-5.5c0-3.1 47.1-5.5 105.3-5.5s105.3 2.4 105.3 5.5" fill="#36322d"/><path clip-path="url(#z)" d="m124.4 30.4c-43.2 0-78.3 37.5-78.3 83.8v150.2h156.6v-150.2c0-46.3-35-83.8-78.3-83.8" fill="#36322d"/><path clip-path="url(#z)" d="m115 66.9c-3.8 0-7.3.7-10.6 2.3-3.3 1.5-6.1 3.5-8.5 6s-4.3 5.3-5.7 8.5-2.1 6.3-2.1 9.6c0 2.3.3 4.2.9 5.5s1.3 2.4 2.2 3c.8.7 1.6 1.1 2.4 1.3s1.4.3 1.8.3c1.7 0 3.2-.3 4.3-.9s2.1-1.2 3-1.9 1.7-1.3 2.5-1.9 1.8-.9 2.9-.9c.8 0 1.7.2 2.7.5.9.4 1.8 1 2.7 1.8.8.9 1.5 2 2 3.4s.8 3.2.8 5.2c0 2.5-.6 4.8-1.8 6.8s-2.7 3.7-4.5 5.1c-1.9 1.4-3.9 2.5-6.2 3.2s-4.6 1.1-6.8 1.1c-6.8 0-12.2-2.4-16.2-7.1s-6-11.5-6-20.2c0-7.1 1.4-13.2 4.1-18.4 2.8-5.2 6.4-9.6 11-13 4.6-3.5 9.8-6 15.7-7.7 5.9-1.6 12-2.5 18.3-2.5 7.3 0 13.9 1.1 20 3.1 6.1 2.1 11.4 5.1 15.8 8.9s7.9 8.5 10.4 13.9 3.7 11.4 3.7 18c0 7.2-1.1 13.5-3.4 18.9-2.3 5.3-5.2 10.1-8.7 14.4-3.5 4.2-7.4 8.1-11.5 11.7-4.2 3.5-8.1 7.1-12 10.8-3.8 3.7-7.2 7.6-10.1 11.8s-4.8 9-5.7 14.4h-9.1c0-5 .6-9.7 1.8-14.1s2.7-8.6 4.5-12.7 3.7-8.2 5.8-12.2c2.1-4.1 4-8.3 5.8-12.8 1.8-4.4 3.3-9.2 4.5-14.3s1.8-10.7 1.8-16.8c0-4.8-.4-9.1-1.3-13s-2.2-7.3-4.1-10.2c-1.9-2.8-4.2-5-7.1-6.6-2.7-1.6-6.1-2.3-10-2.3m-14.2 152.2c0-2.8.5-5.5 1.5-8s2.3-4.7 4-6.6c1.7-1.8 3.7-3.3 6-4.4s4.8-1.6 7.5-1.6 5.1.5 7.5 1.6c2.3 1.1 4.4 2.6 6.1 4.4 1.7 1.9 3.1 4.1 4.1 6.6s1.5 5.2 1.5 8c0 2.9-.5 5.6-1.5 8.1s-2.4 4.6-4.1 6.4-3.8 3.3-6.1 4.3c-2.3 1.1-4.8 1.6-7.5 1.6s-5.2-.5-7.5-1.6c-2.3-1-4.3-2.5-6-4.3s-3-4-4-6.4c-1-2.5-1.5-5.2-1.5-8.1" fill="#f8f7f3"/><path clip-path="url(#z)" d="m192.5 133.5h.8c6.8.4 5.3 5 4.1 10.1 0 0 1.8 5.6 4.7 9.9 4.4 6.5 3.8 18.8-4.5 18.8h-.3c0 .1-.3.1-.8.2.1 2.2.8 15.1 1 30.5.7 2.1 1.5 4.5 2.4 7 6.5 16.8-3.2 39.6-6.5 46.5-.6 1.3-1 2.1-1 2.1s.2-18.6-4.4-42.2c-.4-1.7-.6-3.4-.8-4.9-5.9-10.9-9.5-30.2-8.6-30.2.2 0 .5.7 1 2.2 3.7 11.1 8.8 12.4 8.8 12.4 1.8-4.7 4.5-6.8 5.7-7.4-.3-7.7-.8-13.7-1.6-15.9-4.6-.2-10.9-1.6-11.5-6.2-1-8.3 7-21.4 0-23.5-5.1-.2-2-4.7 2.5-4.7.3 0 .6 0 .9.1-.1-.1 2-4.8 8.1-4.8m30.2 12.7c4.3 0 6.7 3.5 7 3.8 3.1.3 4.1 1.8 4.1 1.8 6.8 5.2 2.8 13.8-1 17.4-2.4 2.3-4.5 8.9-8 12.8-2.3 2.5-4.6 3.4-6.7 3.4-1.7 0-3.3-.6-4.7-1.4-.3 6-.8 15.4-1.6 25.6l1.1-1.1c12.1-11 12.1-20.3 12.1-20.3s1.6 24.8-8.4 46.4-13.4 26.1-13.4 26.1v-.1c-.3-1.8-4.1-29.8 4.9-45.9 1.2-13.4 2.1-26.2 1.9-33.2-1-1-1.6-1.9-1.6-1.9-4.6-4.2-1.4-8.7 1.8-10.7s3.5-6.3 2.8-12.4 3.7-8.7 6.5-9.8c1.1-.4 2.2-.5 3.2-.5m-30.2-16.5c-5 0-8.4 2.4-10.2 4.7-4.1.5-7.6 3.5-7.6 6.8 0 1.8 1.1 4.8 5.4 5.3.5 1.1-.5 5.4-1.1 7.9-1 4.1-2.1 8.4-1.6 12.4.6 5 5 8.2 12.1 9.2.3 1.8.6 5 .8 10.6-1 .8-2.1 2-3.1 3.6-1.2-1.5-2.6-3.9-3.9-7.8-.6-1.9-1.6-4.8-4.6-4.8-1.3 0-2.6.8-3.3 1.9-2.2 3.7 3.8 24.6 8.2 33.2.2 1.6.4 3 .7 4.5 4.5 22.9 4.4 41.2 4.4 41.4 0 1.7 1.1 3.3 2.8 3.7.3.1.6.1.9.1 1.4 0 2.7-.7 3.3-2 0 0 .4-.8 1.1-2.3.5-1 1.1-2.4 1.9-4.1.2 3.3.5 5.7.7 6.8 0 1.8 1.3 3.4 3.1 3.7.2 0 .4.1.6.1h.1c1.2 0 2.3-.5 3-1.5.4-.5 3.9-5.4 13.8-26.8 10.3-22.2 8.8-47.1 8.8-48.2-.1-1.2-.7-2.3-1.7-2.9l.5-.5c2.2-2.4 3.8-5.5 5.2-8.2.9-1.8 2-3.8 2.6-4.4 3.1-2.9 6.1-8.3 5.8-13.7-.2-3.6-1.8-6.8-4.8-9.2-.7-.8-2.2-2-4.7-2.6-1.5-1.6-4.5-4.1-9-4.1-1.5 0-3 .3-4.5.9-6.3 2.4-9.6 7.5-8.9 13.7.6 4.9.3 7.7-.9 8.6.7-4.7-.4-10.2-3.2-14.2-1.9-2.8-3.3-6.3-3.9-8 .8-3.4 1.7-7.3-.6-10.3-1.5-2-3.9-3.1-7.2-3.3-.3-.2-.7-.2-1-.2m8 46c.7-.2 1.3-.4 1.9-.7 0 2 .6 4.6 3.2 7.2.2.2.4.5.7.8 0 5.9-.5 15.7-1.7 29.1-.3-1.1-.7-2.3-1.1-3.4-.8-2.1-1.6-4.2-2.2-6.3-.2-11.5-.6-21.5-.8-26.7m17.5 13.5c.9 0 2-.1 3.1-.5-.2 1.4-1 5.3-4.9 10.5.2-3.7.4-7.1.6-10.1.5.1.8.1 1.2.1" fill="#36322d"/><path clip-path="url(#z)" d="m188.4 195.9s-5.2-1.3-8.8-12.4c-3.7-11.1 1.7 22.5 10.7 32.5z" fill="#b8d94c"/><path clip-path="url(#z)" d="m192.3 172.3 4.1-.2s3.8 62.6-3.1 84.4c.1 0 2.7-75.8-1-84.2m17.1 4.4 4.1.2s-1.7 62.7-10.5 83.8c.1 0 9.4-75.2 6.4-84" fill="#7a9c0f"/><path clip-path="url(#z)" d="m194.6 188.2s-11.4 4.6-6.7 28.2 4.4 42.2 4.4 42.2 15.3-28.5 7.6-48.6c-5.5-14.3-5.3-21.8-5.3-21.8" fill="#648200"/><path clip-path="url(#z)" d="m224.9 188.2s1.6 24.8-8.4 46.4-13.4 26.1-13.4 26.1-5.8-38.1 9.7-52.2c12.1-10.9 12.1-20.3 12.1-20.3" fill="#b8d94c"/><path clip-path="url(#z)" d="m229.6 150s-3.7-5.6-10.2-3.2c-2.8 1-7.2 3.7-6.5 9.8.7 6 .4 10.4-2.8 12.4s-6.4 6.5-1.8 10.7h9.5l8.8-15.5z" fill="#f3b670"/><path clip-path="url(#z)" d="m197.4 143.6s1.8 5.6 4.7 9.9c4.5 6.6 3.8 19-4.7 18.8l-9.3-1.7 4.2-27z" fill="#a62219"/><path clip-path="url(#z)" d="m186.6 171.8c-.4-.1-.8-.4-.8-.8l-1.4-15.7-1-17c0-.1 0-.3.1-.4.1-.2 2.3-5.3 9-5.3h.9c2.5.2 4.2.9 5.1 2.2 1.5 2.1.8 5.2 0 8.4l-.2.6c-5.4 22.2-2.1 26.7-.5 27.6.4.2.6.7.4 1.1-.1.4-.5.7-.9.7z" fill="#a62219"/><path clip-path="url(#z)" d="m192.3 151.8s1.2 4.6-2.1 8.3c-4.4 5.1 1.2 11.8 6.2 12s-14.5 2.6-15.5-5.7 7-21.4 0-23.5l3.3-2.4 5.9 3.1z" fill="#f3b670"/><path clip-path="url(#z)" d="m192.3 151.8s-2.1-9.6-9.8-8.9-3.5-5.4 1.8-4.6c5.3.6 7.3 4.8 8 13.5" fill="#d8665e"/><path clip-path="url(#z)" d="m213.1 178.3 13.9-8.8 2.6-19.6" fill="#d86d43"/><path clip-path="url(#z)" d="m218 186.4c-5.8 0-10.2-5.9-10.4-6.2s-.2-.7-.1-1c.2-.3.5-.5.8-.5h.5c2.7 0 4.7-1.9 6-3.4 3.4-4.2 4.8-10.5 4.2-13-.5-2.2-.9-6.5 1.2-9.6 1.2-1.8 3-2.9 5.4-3.4 1.1-.2 2.2-.4 3.1-.3 8.6.8 9.4 6.5 9.5 9.4.2 4.5-2.3 9-4.9 11.5-1 1-2.1 3-3.2 5.2-1.3 2.6-2.8 5.5-4.8 7.6-2.2 2.4-4.6 3.7-7.3 3.7z" fill="#a62219"/><path clip-path="url(#z)" d="m49 264.3c-1.8 0-3.4-1.3-3.6-3.1 0-.1-.7-4.5-2.4-13.6-1.4-.1-2.6-.2-4.1-.6-7.2-2.1-15.6-9.4-17.7-19.3-.7-3.2-1.6-3.4-5.6-2.9l-.9.1c-1.5.2-3.1-.6-3.8-1.9s-.6-3 .3-4.2c1.9-2.5 10.8-6.2 20.3-3.8 1.9.5 3.7 1.2 5.4 2.1-1.3-6.2-2.5-11.5-3.6-15.9-.9 1.5-1.9 2.7-3 3.5-1.9 1.4-3.7 1.4-4.8 1.2-5-.8-6.9-7.3-6.7-14-1.8 1.1-3.7 1.7-5.5 1.9-2.4.2-4.6-.4-6.3-1.9-4.3-3.9-3.6-11.9 1.7-18.7 1.2-1.6 2.6-3 4-4-1.8-1-3.5-2.3-5.1-4-6.5-6.6-8.1-15.2-3.9-20 1.7-1.9 4-2.9 6.7-3 3.4-.1 7.3 1.4 10.7 4.1v-.9c0-9.2 3-19.2 9.6-19.2 6.7 0 9.7 10 9.8 19.2v.3c4-3.2 8.4-4.8 11.9-4.6 2.2.2 4.1 1.1 5.4 2.7 4 5 .3 13-5.6 18.6 2.1.7 4 1.8 5.6 3 1.4-.8 3.2-.7 4.5.5 1.5 1.4 1.5 3.7.1 5.2 0 .1-.3.5-.2 1.7v.3c.1.3.1.6.1.9 0 .4-.1.8-.1 1.2-.4 2.3-1.8 4.4-4 5.8-2 1.3-4.6 2.1-7.4 2.2 2.3 5.7 1.5 11.3-2.3 14-1.5 1.1-3.3 1.5-5.2 1.4.6 2.4 1.2 4.9 1.8 7.6 1.5-1.9 3.4-3.7 6-4.9 1.8-.9 4-.1 4.9 1.7.6 1.3.4 2.7-.3 3.7.7-.5 1.5-.8 2.4-.8 2 0 3.7 1.7 3.6 3.8-.1 5.8-3 10.9-6.5 14.3 1.5 1 2.1 3 1.3 4.7-.9 1.8-3.1 2.6-4.9 1.8-.8-.4-1.5-.6-2.3-.7l.3.3c1.2 1.4 2.4 3.1 3.7 4.9 1.2 1.7.8 4-.8 5.2-.2.2-.5.3-.7.4 1.1 8.3 1.4 14.5.9 20.4-.2 1.9-1.7 3.3-3.6 3.4 0-.1 0-.1-.1-.1m-22.3-42.7c.7 1.2 1.3 2.6 1.7 4.5 1.3 6.1 5.9 10.4 9.8 12.5 2.8 1.5 4.8 1.6 5.2 1.4.2-.2.5-.4.8-.6-.3-2-.7-4.1-1.1-6.4-1.3 0-2.5-.7-3.2-1.9l-.6-1c-.1-.2-.2-.5-.3-.7-.2-.2-.3-.4-.5-.6-2.4-3.6-5.4-5.9-8.9-6.7-.9-.3-1.9-.4-2.9-.5m28.3-14c-.2.2-.4.3-.7.4-4.9 2.4-6.1 8.5-6.3 11.9 0 .2 0 .4-.1.6 2.4-1.4 6.3-5.6 6.4-10.9 0-.7.3-1.4.7-2m-25.9-26.6c-1 1.5-2.1 4.3-2.7 8-.6 4-.2 7.1.3 8.7.9-1.4 2.1-4.2 2.7-8 .1-.7.2-1.4.2-2.1 0-.5.2-1 .4-1.4-.2-.4-.3-.9-.4-1.3 0-1.9-.3-3.2-.5-3.9m8.8 7.3c1 0 1.9.4 2.6 1.1 1.8 1.8 3.4 2.1 3.7 1.9.6-.5 1.1-3.7-1.4-7.6-2-3.2-4.5-4.3-5.3-4.1h-.1c0 .1-.1.1-.1.2-.4.5-.6 2-.1 3.9.3 1 .1 2-.4 2.8v.1c.2.6.4 1.2.6 1.9.2-.2.3-.2.5-.2m-17-14.9c-1.2 0-3.8 1.1-6.3 4.3-3.1 4-3.4 8-2.6 8.6.1.1.4.1.7.1 1.5-.1 4-1.5 6.1-4.3 1.6-2.1 2.7-4.4 2.9-6.4.1-.8.4-1.6 1-2.1-.5 0-.9 0-1.4-.1-.2-.1-.3-.1-.4-.1m22.8.8c1 .6 2.2 1.1 3.7 1.4 3.1.7 5.5 0 6.7-.7.3-.2.7-.6.8-1v-.2-.1c-.2-1.3-2.4-3.6-6.4-4.5-3.3-.7-5.7 0-6.8.8-.6.4-1.3.7-2 .7.7.3 1.3.8 1.7 1.4s1 1.2 1.9 1.9c.2.1.3.2.4.3m-18.4-1.8c.9 0 1.8.3 2.5 1 .3.3.7.5 1.1.8.4.2.8.5 1.1.9.4-.2.9-.4 1.4-.5.4-.1.9-.2 1.3-.3.3-.1.6-.2.9-.2.2-.3.4-.5.6-.7.4-.3.7-.7.9-1.2.6-1 1.7-1.7 3-1.8-1.1-.5-2-1.5-2.2-2.7l-.3-.9c-.3-.9-.3-1.8.1-2.7-.9.2-1.8.2-2.6-.2-.3-.1-.6-.3-1-.4s-.8-.3-1.1-.5c-.4.3-.8.5-1.2.6-.6.2-1.1.4-1.6.8-.8.6-1.8.9-2.7.8.6.8.8 1.8.6 2.8-.1.5-.1 1.1-.1 1.7.1 1.1-.3 2.1-1 2.9.1-.2.2-.2.3-.2m-14.6-22.8c-.7 0-1.2.2-1.5.5-1.2 1.3-.3 5.9 3.6 9.9 3.3 3.4 6.8 4.2 8.2 3.7.5-.2 1.1-.3 1.7-.2-.4-.6-.6-1.3-.7-2-.1-2.4-1.7-5.6-4.1-8-2.7-2.9-5.5-3.9-7.2-3.9m41.1-1.2c-1 0-4.4.9-8.2 4.4-3.5 3.2-5 6.4-5.3 8.2 0 .3-.1.6-.3.9.3-.1.5-.1.8-.1 1.6-.1 4.6-1.3 7.9-4.3 4.6-4.2 5.6-8.3 5.3-9.1zm-21-14.3c-1 1.6-2.3 5.5-2.3 11.3s1.3 9.6 2.3 11.3c1-1.6 2.3-5.5 2.3-11.3s-1.3-9.7-2.3-11.3" fill="#36322d"/><path clip-path="url(#z)" d="m46.6 239.8s-2.4-17.9-16-21.3c-9.9-2.4-18.1 2.9-16.4 2.7 3.4-.4 8.9-1.7 10.5 5.6 3.3 15.1 23.1 22 21.9 13" fill="#b8d94c"/><path clip-path="url(#z)" d="m44.2 222.3s-.7-13.2 8.5-17.6c6.7-3.3 13.2-.8 12-.6-2.5.3-6.6.2-6.7 5.7-.2 11.1-13.4 19.2-13.8 12.5" fill="#648200"/><path clip-path="url(#z)" d="m32 185 3.7-1.1s16 58 14 80.1c.1 0-12.7-71.9-17.7-79" fill="#7a9c0f"/><path clip-path="url(#z)" d="m30.9 161c3.3 0 6-7 5.9-15.5 0-8.6-2.7-15.5-6-15.5s-6 7-5.9 15.5c0 8.5 2.7 15.5 6 15.5m4.5 3.2c2.3 2.8 8.5 1.1 13.8-3.9 5.4-5 8-11.3 5.7-14.1s-8.5-1-13.9 3.9c-5.3 4.9-7.9 11.3-5.6 14.1m13.8 1.3c-5.8-1.2-11.1.8-11.8 4.6s3.5 7.9 9.3 9.1 11.1-.8 11.9-4.6c.6-3.8-3.5-7.9-9.4-9.1m-14 11.1c-2.8 2.1-2.7 7.7.4 12.6s7.9 7.2 10.7 5.1c2.9-2 2.7-7.7-.4-12.6s-7.9-7.2-10.7-5.1m-5.4-.2c-2.8-.5-6 4.9-7 12s.4 13.3 3.3 13.8c2.8.5 6-4.9 7-12s-.5-13.3-3.3-13.8m-6-5.7c-2.8-2.5-8.2-.4-12.2 4.7s-4.9 11.2-2.2 13.7c2.8 2.5 8.2.4 12.2-4.7s5-11.2 2.2-13.7m.6-4.9c2.9-3.2 1.2-9.9-3.7-14.9s-11.3-6.5-14.2-3.3c-2.9 3.3-1.2 9.9 3.7 15 5 5 11.3 6.4 14.2 3.2" fill="#f0eee9"/><path clip-path="url(#z)" d="m39.6 168c.5 5.1-3 9.7-7.8 10.3-4.8.5-9.1-3.2-9.6-8.4-.5-5.1 3-9.7 7.8-10.2 4.9-.6 9.2 3.2 9.6 8.3" fill="#a62219"/></g><g clip-path="url(#a)"><path clip-path="url(#A)" d="m73.2 265.7 9.4-81.8-22.9-2.6-9.4 81.8z" fill="url(#B)"/></g><g clip-path="url(#a)"><path clip-path="url(#C)" d="m66.3 231.3s-1-10.5 8.5-17.6c6-4.6 13.9-2.5 12.7-2.4-2.5.3-5 5-8 11.5-4.6 10-12.8 15.1-13.2 8.5" fill="#b8d94c"/><path clip-path="url(#C)" d="m75.4 173.3c2.6 1.5 7.2-2.3 10.3-8.4s3.4-12.3.8-13.8-7.2 2.3-10.3 8.4-3.4 12.3-.8 13.8m-3.7 1.9c2.3-2.3 1.4-8.4-1.9-13.5s-7.8-7.4-10.1-5.1-1.4 8.4 1.9 13.5c3.3 5.2 7.8 7.4 10.1 5.1m29.6-5.6c-1.1-3.4-7-4.3-13.1-1.9-6.1 2.3-10.2 7-9.1 10.4s7 4.3 13.1 1.9c6.2-2.3 10.2-7 9.1-10.4m-12.7 14.8c-4.2-3.3-9.2-3.7-11.2-.8-.7.9-.9 2.1-.8 3.4-.8-1-1.7-1.6-2.7-1.5-.8.1-1.6.7-2.1 1.6-.2-1.2-.6-2.1-1.3-2.5-2.2-1.2-6.2 2.3-8.8 7.8-2.7 5.5-3.1 11-.9 12.2s6.1-2.3 8.8-7.8c.2-.5.5-1 .7-1.5v.6c.5 5.6 2.8 9.9 5.3 9.6 2.5-.2 4.1-4.9 3.6-10.5-.1-1-.2-2-.4-2.9.7.9 1.5 1.8 2.5 2.6 4.2 3.3 9.2 3.7 11.2.8 2.1-2.8.3-7.8-3.9-11.1m-20.2-5.2c-1.1-2.4-6.2-2.2-11.4.5-5.3 2.7-8.7 6.8-7.6 9.2s6.2 2.2 11.4-.5 8.6-6.9 7.6-9.2" fill="#f0eee9"/><path clip-path="url(#C)" d="m81.1 178.4c.4 4.2-2.5 8-6.4 8.5-4 .4-7.5-2.7-7.9-6.9s2.5-8 6.4-8.4c4-.5 7.5 2.6 7.9 6.8" fill="#a62219"/><path clip-path="url(#C)" d="m64.8 230.6s-1-10.5-11.6-15.4c-6.8-3.2-14.1.5-12.9.4 2.5-.3 5.8 3.8 10 9.5 6.4 8.9 15.3 12.1 14.5 5.5" fill="#9cbe30"/></g></svg>